<?xml version="1.0" encoding="utf-8"?>
<svg xmlns="http://www.w3.org/2000/svg" viewBox="70 79 858 858" width="512" height="512">
<rect x="70" y="79" width="858" height="858" rx="154" ry="154" fill="#16161e"/>
<path fill="#D6D5D6" d="M254.491 485.87C278.46 467.682 294.833 442.897 298.663 412.555C303.134 377.141 307.445 345.313 323.765 313.019C349.111 263.923 392.967 226.943 445.64 210.255C465.473 203.79 478.728 202.187 499.433 201.262C539.017 199.492 564.784 211.154 600.036 226.631L636.352 242.269L686.231 263.923C724.937 280.6 758.577 292.021 772.985 336.292C779.132 355.779 777.885 378.03 768.496 395.633C748.033 433.995 707.447 440.71 667.975 438.991C653.152 438.346 636.675 439.6 621.75 439.356C553.673 441.741 485.715 481.409 453.472 541.913C434.457 577.595 429.238 621.118 441.581 659.853C453.543 696.249 479.286 726.513 513.292 744.159C530.753 753.14 539.561 754.966 557.888 759.571C562.862 759.609 569.586 760.867 575.105 761.062C665.966 764.295 748.655 674.808 723.074 583.795C720.692 575.322 717.538 570.648 714.235 562.989C712.191 560.381 709.676 556.102 707.292 553.02C700.479 544.212 694.748 539.161 686.068 532.669C682.121 530.469 678.109 527.624 674.174 525.64C665.551 521.292 656.798 519.785 647.926 517.226C656.496 524.467 663.365 530.511 669.852 540.207C715.918 609.059 663.918 701.226 584.368 707.814C575.811 708.522 561.89 707.953 553.668 704.756C546.012 703.188 515.747 690.454 513.937 682.996C515.909 682.152 523.71 685.872 526.417 686.876C584.196 705.79 654.437 651.921 650.122 590.99C648.811 572.476 641.775 559.837 628.004 547.835C585.473 519.262 539.353 543.414 507.324 575.382C498.468 584.221 491.182 592.048 484.19 602.536L481.746 606.232C481.999 603.753 482.189 601.019 482.721 598.608C485.63 576.93 495.588 555.873 509.192 538.853C534.941 506.731 572.341 486.086 613.244 481.417C690.135 472.959 756.149 525.021 763.834 602.411C768.379 648.172 753.428 692.02 724.06 727.116C629.467 840.157 442.162 837.597 333.074 747.39C316.386 733.6 301.265 719.803 287.381 703.232C250.329 658.203 227.433 603.216 221.579 545.198C216.839 489.8 227.915 434.195 253.519 384.841C256.425 379.145 263.342 365.19 266.968 360.796C265.921 368.681 263.782 377.01 262.677 385.505C258.492 417.689 254.13 453.506 254.491 485.87Z"/>
<path fill="#C2C1C2" d="M772.985 336.292C779.132 355.779 777.885 378.03 768.496 395.633C748.033 433.995 707.447 440.71 667.975 438.991C653.152 438.346 636.675 439.6 621.75 439.356C553.673 441.741 485.715 481.409 453.472 541.913C434.457 577.595 429.238 621.118 441.581 659.853C453.543 696.249 479.286 726.513 513.292 744.159C530.753 753.14 539.561 754.966 557.888 759.571C551.364 762.041 534.039 755.672 527.76 753.163C500.952 742.598 477.666 724.687 460.577 701.487C445.576 681.109 436.379 657.046 433.966 631.857C432.644 616.738 434.473 599.637 434.537 584.376C434.559 579.327 438.467 573.63 437.81 567.088L437.758 566.6L438.908 566.363L439.968 565.451L440.017 564.518C439.392 564.17 438.994 563.94 438.384 563.549C442.886 560.655 448.347 546.982 450.315 542.006C451.036 540.184 453.901 537.261 454.662 535.143C455.13 534.144 456.134 527.99 456.756 527.623C461.311 524.929 462.603 522.225 465.506 518.397C469.404 513.257 473.891 507.726 478.226 503.066C485.03 495.751 493.379 489.552 499.964 482.033C505.078 475.821 506.008 476.852 512.605 472.083C512.853 471.31 513.065 470.649 513.241 470.098C518.547 466.323 528.806 464.14 534.085 458.247C534.842 457.402 550.275 451.383 552.247 451.431C558.759 451.589 565.865 445.774 571.519 442.579C573.309 441.7 576.768 442.427 578.923 442.13C582.13 441.688 581.725 438.903 584.545 438.171C585.642 438.887 585.804 439.425 586.429 440.573L586.655 440.996C587.907 441.527 587.278 441.471 588.589 440.981C589.448 439.839 589.563 439.502 590.794 438.766C596.538 441.845 596.885 437.35 600.985 437.303C609.778 437.202 618.695 435.209 627.5 435.797C629.599 435.938 632.764 433.752 635.203 434.045L634.897 435.048L635.246 435.689C643.312 435.535 647.066 435.454 654.334 436.66C659.496 437.516 675.857 436.427 679.999 434.678C681.6 435.115 695.063 436.098 696.292 435.701C702.774 433.604 714.654 432.264 720.78 430.239C741.611 423.357 759.777 404.683 770.529 386.025C773.628 380.646 775.3 361.376 774.669 354.713C774.124 348.769 771.904 341.202 772.985 336.292Z"/>
<path fill="#C2C1C2" d="M482.721 598.608L483.523 599.461C485.18 598.617 495.212 581.766 499 579.666C499.724 579.265 504.209 572.628 505.764 571.301C510.612 567.163 515.148 562.769 519.638 558.26C523.959 559.151 526.119 555.647 527.687 555.338C532.03 554.481 542.563 541.117 544.837 541.113C544.897 542.36 544.747 541.925 545.288 542.997C547.619 542.108 547.377 538.722 550.252 537.679C553.474 540.347 555.476 537.237 559.185 536.666C559.739 536.581 559.295 535.639 560.755 535.197C561.266 535.945 561.356 536.057 561.922 536.72C566.254 536.785 568.274 534.502 573.67 534.772L574.185 534.803L577.586 531.583C581.126 531.529 581.988 531.33 585.189 530.082L585.887 529.804L586.656 530.907C588.557 531.91 589.49 530.53 591.717 531.21L591.547 531.793L589.418 531.946C590.057 532.647 593.678 532.437 595.039 533.11C597.465 534.307 602.619 534.053 604.897 532.512C605.948 531.8 605.451 531.846 606.698 531.622L606.3 533.002L606.745 533.575L608.723 533.08L608.698 534.71L609.449 535.281L610.306 535.03C610.587 533.805 610.52 534.035 611.01 532.911L611.893 532.773C612.75 533.76 613.421 534.843 614.147 535.931C612.844 534.831 612.629 534.682 611.15 533.83L610.367 534.618C610.407 535.443 610.593 535.748 610.854 536.561C614.083 538.686 619.793 541.137 623.451 542.839C626.571 542.652 625.501 539.971 627.977 537.223L628.692 537.466C629.647 539.279 629.925 539.379 631.753 540.321C629.835 542.565 629.17 542.235 627.492 543.953C627.496 545.606 627.676 546.252 628.004 547.835C585.473 519.262 539.353 543.414 507.324 575.382C498.468 584.221 491.182 592.048 484.19 602.536L481.746 606.232C481.999 603.753 482.189 601.019 482.721 598.608Z"/>
<path fill="#C2C1C2" d="M553.668 704.756C546.012 703.188 515.747 690.454 513.937 682.996C515.909 682.152 523.71 685.872 526.417 686.876C524.753 686.932 523.221 686.784 521.805 687.56L521.818 688.217C528.796 694.188 549.513 700.193 553.668 704.756Z"/>
<path fill="#C2C1C2" d="M686.068 532.669C691.579 533.496 693.024 536.51 698.093 538.462C699.725 539.09 701.517 537.924 702.783 539.06C702.186 540.327 701.883 540.706 702.786 542.474C706.795 550.325 712.041 553.8 714.235 562.989C712.191 560.381 709.676 556.102 707.292 553.02C700.479 544.212 694.748 539.161 686.068 532.669Z"/>
<path fill="#252526" d="M459.697 242.545C472.328 237.146 492.366 235.866 506.155 235.627C538.502 235.064 567.597 251.398 596.719 263.191C611.654 269.239 626.123 276.053 640.944 282.288L678.418 298.214C701.012 307.731 726.49 315.933 736.752 340.22C746.691 363.746 737.985 390.234 713.669 400.188C698.767 406.113 678.261 404.623 662.04 404.755L599.554 405.191L533.338 405.573C522.21 405.616 508.43 406.188 497.588 405.378C490.33 404.873 483.196 403.232 476.446 400.515C457.85 392.824 444.15 377.414 440.502 357.439C429.314 358.466 416.066 359.22 405.108 360.535C408.496 384.331 422.293 406.354 441.52 420.496C461.049 434.86 480.782 439.588 504.414 440.558C453.604 473.166 415.592 517.537 402.522 577.676C391.99 624.97 400.825 674.512 427.056 715.249C435.468 728.272 449.21 741.155 460.163 752.437C463.756 756.138 469.44 759.726 473.479 763.274C481.948 769.213 482.557 769.557 491.637 774.66C482.041 773.479 474 772.287 464.54 770.249C459.895 769.681 449.896 766.521 445.201 765.107C408.335 754.066 374.277 735.217 345.344 709.843C292.474 663.71 260.284 598.323 255.965 528.288C259.068 525.653 266.296 521.07 269.918 518.553C304.271 494.678 326.168 461.806 333.66 420.583C336.331 405.888 337.252 391.067 339.848 376.31C344.084 355.012 350.741 334.707 362.491 316.262C381.17 286.889 408.122 263.699 439.954 249.613C445.597 247.147 453.769 243.85 459.697 242.545Z"/>
<path fill="#212022" d="M339.848 376.31C344.084 355.012 350.741 334.707 362.491 316.262C381.17 286.889 408.122 263.699 439.954 249.613C445.597 247.147 453.769 243.85 459.697 242.545L459.494 243.346C456.001 244.487 451.819 244.479 452.192 249.036C454.859 247.867 456.186 245.62 458.574 245.043L458.901 245.394C448.009 254.549 439.304 254.243 427.538 260.667C424.154 262.515 418.404 266.907 415.01 269.189C388.658 286.909 368.851 309.913 354.812 338.297C350.786 346.437 346.347 360.41 343.817 369.238C346.294 349.342 359.761 323.534 372.212 308.453C375.915 303.969 376.052 301.823 380.328 297.775C378.539 298.141 376.756 300.874 375.063 301.923C363.201 309.275 347.114 348.84 343.793 363.137C342.561 368.441 341.495 373.781 340.279 379.088L339.848 376.31Z"/>
<path fill="#212022" d="M464.54 770.249C467.736 768.486 480.523 773.796 482.95 772.084C480.321 768.332 472.12 765.185 468.65 761.219L469.011 760.895C470.738 762.122 471.487 762.565 473.479 763.274C481.948 769.213 482.557 769.557 491.637 774.66C482.041 773.479 474 772.287 464.54 770.249Z"/>
<path fill="#D6D5D6" d="M516.755 274.634C531.312 272.988 542.249 281.185 554.313 287.896C562.736 292.582 571.373 297.098 579.624 302.065C568.623 305.127 558.775 310.211 548.723 315.549C545.217 317.392 533.603 322.612 530.051 323.394C521.983 325.255 513.506 323.791 506.53 319.331C486.494 306.352 492.157 278.732 516.755 274.634Z"/>
<path fill="#212022" d="M340.097 391.123L341.169 392.062L341.175 393.615L341.869 393.662L342.441 394.533C342.618 398.248 339.491 400.328 339.693 401.987C340.049 404.917 336.472 424.437 336.603 425.159C337.59 425.95 337.552 425.725 338.147 426.733C337.113 428.11 336.903 428.104 336.422 429.711L338.231 430.083L338.14 430.818C335.851 432.544 336.239 433.938 334.801 434.906L334.392 434.591C334.421 422.915 339.667 403.021 340.097 391.123Z"/>
<path fill="#212022" d="M338.208 437.382C339.098 438.265 338.959 439.464 340.891 439.444C344.097 439.411 345.554 441.146 347.974 442.999L347.798 443.734L348.089 443.575C345.861 444.116 345.335 443.283 343.405 443.698L345.219 444.485L345.403 445.218C344.64 446.224 343.964 446.214 342.701 446.561C342.02 447.221 342.399 446.934 341.272 447.145L340.779 446.541L341.349 445.53C341.106 443.985 339.747 442.927 338.278 442.607C337.341 443.243 337.392 443.231 336.304 443.533C335.392 440.901 338.098 442.386 339.072 440.225L338.521 439.861L336.196 440.54L335.761 440.094C336.6 438.524 336.844 438.483 338.208 437.382Z"/>
<path fill="#212022" d="M314.732 482.265C314.931 482.537 316.029 483.116 316.42 483.367C310.754 484.402 314.529 494.799 307.037 496.613C307.294 498.017 307.382 497.363 306.776 498.644L306.017 498.799C304.393 497.936 304.984 498.529 304.062 497.081C306.749 491.606 311.086 487.053 314.732 482.265Z"/>
<path fill="#212022" d="M291.429 509.817L291.442 510.317C292.351 511.145 291.995 510.701 292.561 511.606C291.08 513.473 287.484 517.555 285.642 518.886L285.056 518.709L284.936 517.568L284.428 517.798L284.928 517.65C283.474 518.485 283.155 519.135 283.289 520.674L284.918 521.646L284.845 522.081L283.974 521.995L282.912 521.619C281.139 521.976 279.038 522.646 277.622 521.263C282.809 516.337 286.723 514.252 291.429 509.817Z"/>
<path fill="#212022" d="M441.104 426.426C447.668 427.106 444.85 428.41 449.711 430.561C453.346 432.17 457.81 433.429 461.157 435.833C461.689 437.533 461.839 436.831 461.191 438.09L459.753 436.771C458.839 438.136 459.319 437.762 457.962 438.508L456.935 437.89C455.011 432.773 454.778 435.849 451.459 433.815C452.489 433.299 452.019 433.58 452.879 432.991C450.687 431.421 448.593 431.996 447.507 431.097C444.829 428.88 444.56 427.963 441.104 426.426Z"/>
<path fill="#212022" d="M328.057 452.942L329.116 450.786C330.511 450.349 330.517 450.447 332.003 450.587L332.683 451.457C332.255 452.87 331.893 453.119 330.954 454.261C329.14 456.277 327.405 458.105 326.806 460.789C324.931 461.707 324.669 462.02 323.324 463.635C323.237 461.641 326.7 454.312 328.057 452.942Z"/>
<path fill="#212022" d="M328.057 452.942L329.116 450.786C330.511 450.349 330.517 450.447 332.003 450.587L332.683 451.457C332.255 452.87 331.893 453.119 330.954 454.261C329.333 454.539 329.932 454.621 328.436 454.209L328.057 452.942Z"/>
<path fill="#212022" d="M391.997 497.555C394.066 497.527 398.2 497.365 399.929 498.126C398.869 499.753 396.667 499.282 394.444 499.797C393.882 501.424 394.115 503.035 394.201 504.785L393.66 505.263L392.808 505.41C392.655 505.759 392.78 505.632 392.432 505.788C392.911 504.159 393 504.885 392.658 503.437C391.414 503.315 390.984 503.133 389.778 502.762L389.315 501.572C390.112 498.625 389.47 499.71 391.997 497.555Z"/>
<path fill="#343536" d="M336.381 450.125C337.415 450.426 342.278 450.007 343.614 449.923L344.102 450.511C341.53 452.775 340.533 451.517 337.658 455.19L336.824 457.01C335.26 457.973 336.032 457.885 334.502 457.659L333.793 456.586C334.205 455.302 334.527 454.329 335.039 453.081C336.117 453.149 335.579 452.997 336.563 454.013L336.814 453.817C336.476 453.452 336.569 453.63 336.452 453.336L336.757 452.878C336.237 451.692 336.406 451.546 336.381 450.125Z"/>
<path fill="#343536" d="M378.188 453.803C379.806 453.944 380.443 453.544 381.826 454.468C380.781 455.042 380.037 455.189 378.889 455.522L376.853 461.221L376.852 461.678C376.24 460.133 376.168 459.574 375.875 457.986L374.694 457.727C373.549 456.449 373.765 457.025 373.369 455.514C374.506 454.307 375.878 454.597 377.469 454.054L378.188 453.803Z"/>
<path fill="#212022" d="M324.803 535.309L326.117 535.794C326.789 538.833 327.212 541.577 324.846 544.022L324.393 543.43C323.187 542.989 322.415 543.274 321.149 543.482C321.144 540.537 324.92 539.558 324.803 535.309Z"/>
<path fill="#343536" d="M371.489 379.813L372.545 380.569C371.052 384.785 372.99 385.639 368.878 390.532C367.933 390.57 368.425 390.669 367.449 390.062C367.476 388.393 368.131 387.845 369.143 386.47L369.543 385.936C369.175 385.01 369.169 384.902 368.939 383.936C369.364 381.99 370.145 381.392 371.489 379.813Z"/>
<path fill="#212022" d="M379.676 435.277C379.961 435.457 383.431 436.97 383.798 437.104L384.545 437.371L384.552 437.498L384.22 437.006L384.53 437.746L384.647 437.456L383.407 436.928L384.655 437.538L384.885 437.047C384.983 438.698 384.332 439.271 383.922 440.945C383.205 440.491 382.481 440.231 381.69 439.888C379.889 440.36 379.469 440.574 377.58 440.344L377.06 439.466C378.657 439.039 378.033 439.484 379.145 438.401C379.091 437.051 379.318 436.58 379.676 435.277Z"/>
<path fill="#212022" d="M296.019 530.627C297.917 529.888 298.147 529.705 300.127 529.697L300.895 530.422C300.726 532.205 298.856 534.906 297.005 534.986L296.599 534.458L297.027 533.279L296.078 533.338C294.64 533.107 294.383 533.058 293.016 532.578C293.49 531.358 294.376 531.372 296.019 530.627Z"/>
<path fill="#343536" d="M296.019 530.627L296.078 533.338C294.64 533.107 294.383 533.058 293.016 532.578C293.49 531.358 294.376 531.372 296.019 530.627Z"/>
<path fill="#343536" d="M284.967 544.801C286.155 547.111 287.14 549.803 285.604 552.047C283.545 552.543 283.639 552.098 281.194 551.143C281.531 550.01 281.492 550.085 282.413 549.34L283.984 550.058L284.63 549.547C283.957 548.897 283.77 548.801 283.248 548.037C283.151 546.335 283.482 546.599 284.967 544.801Z"/>
<path fill="#212022" d="M367.689 497.065L368.524 497.973C370.694 498.427 372.477 500.674 375.417 500.875L375.755 501.492L374.833 502.216C373.365 501.342 370.875 501.37 368.932 501.075L368.806 499.46C367.221 498.584 367.658 499.465 365.238 499.46L366.002 499.151L365.943 498.416L367.689 497.065Z"/>
<path fill="#212022" d="M315.078 514.79C316.427 515.017 318.146 515.413 318.813 516.634C318.328 517.254 318.059 517.565 317.506 518.156L316.985 518.706L317.722 519.561L319.278 519.183L319.852 520.321C319.251 520.601 318.415 520.862 317.771 521.09C315.947 520.706 315.968 520.596 314.522 519.525C314.166 516.791 314.892 519.437 315.957 517.069L314.776 516.343L315.078 514.79Z"/>
<path fill="#212022" d="M389.346 398.63C388.31 396.262 388.208 396.629 385.473 395.43L384.852 394.499C385.566 392.77 384.99 393.188 386.255 392.649L386.397 393.625C389.643 395.241 388.436 393.203 391.008 394.181C390.676 396.248 390.316 396.716 389.346 398.63Z"/>
<path fill="#212022" d="M303.543 511.665C304.663 512.681 302.922 513.869 303.877 516.047C304.308 517.029 303.884 517.219 303.354 518.08L302.3 518.233C301.078 518.402 301.629 518.496 300.632 518.072C301.256 513.831 300.809 513.721 303.543 511.665Z"/>
<path fill="#212022" d="M483.876 351.849C484.199 351.897 484.786 352.167 485.122 352.301L485.226 353.217C484.266 355.138 482.402 356.606 480.796 358.12L479.692 357.774L479.525 356.811C480.479 354.8 482.231 353.424 483.876 351.849Z"/>
<path fill="#343536" d="M393.109 340.418C395.383 339.764 394.773 339.584 396.435 340.202L396.663 341.12C396.049 342.751 395.308 343.074 393.901 344.116C392.691 344.295 392.141 344.227 391.446 343.317C391.493 341.716 391.735 341.995 393.109 340.418Z"/>
<path fill="#343536" d="M345.709 404.727C346.169 404.915 347 405.395 347.468 405.647L345.993 406.616L346.216 407.029C348.877 407.546 350.122 406.867 352.718 406.25L352.878 408.187C351.189 409.634 352.191 409.743 350.486 411.149C348.625 410.167 350.852 410.948 350.11 408.599C347.774 408.391 346.205 408.712 345.059 406.543L345.709 404.727Z"/>
<path fill="#212022" d="M329.056 545.886C331.032 546.037 332.167 546.122 334.097 546.51L334.449 547.2C333.735 548.357 333.079 548.901 332.12 549.837L330.274 550.437L329.924 549.782L331.23 548.826L331.259 548.011C330.6 547.773 330.006 547.613 329.323 547.483L329.056 545.886Z"/>
<path fill="#212022" d="M328.811 464.938L329.131 466.964C328.487 468.077 328.454 468.941 328.252 470.205C330.081 469.851 329.485 469.598 330.726 470.207L330.855 471.618C329.808 471.752 329.349 471.751 328.295 471.774C326.631 470.879 327.157 471.517 326.46 469.989C326.624 467.156 327.148 467.2 328.811 464.938Z"/>
<path fill="#212022" d="M397.711 453.127C399.673 453.794 399.579 453.898 400.305 455.685C400.105 457.518 400.178 457.408 398.983 458.802C396.366 457.085 396.282 455.542 397.711 453.127Z"/>
<path fill="#212022" d="M300.767 505.221C300.895 506.47 300.843 506.104 301.32 507.299L302.118 507.434L303.305 506.091L304.281 506.721C303.664 507.542 303.688 507.705 303.374 508.69L302.439 508.277C301.043 509.22 299.936 509.856 298.277 509.289C298.691 507.104 299.202 507.17 300.767 505.221Z"/>
<path fill="#212022" d="M331.331 515.306C332.505 515.667 331.993 515.342 332.832 516.331L331.403 517.334L331.622 517.781C333.241 517.82 333.576 517.739 335.137 518.242L335.223 519.193C332.457 518.393 330.575 519.593 328.832 518.527C329.299 516.808 329.828 516.782 331.331 515.306Z"/>
<path fill="#212022" d="M423.771 423.567C424.957 423.715 425.367 423.75 426.526 424.032C426.132 425.345 425.286 425.703 424.131 426.51L423.423 425.797L422.908 427.167C421.637 427.927 422.338 427.74 420.677 427.38L420.624 426.565C421.716 424.659 421.782 424.625 423.771 423.567Z"/>
<path fill="#343536" d="M356.359 444.946C357.651 446.403 355.473 445.593 358.849 447.169L358.668 446.773L358.765 447.781C357.305 448.268 357.04 448.252 355.506 448.089L355.163 449.009C354.385 449.54 352.752 450.772 351.916 450.613C352.791 448.639 354.863 446.618 356.359 444.946Z"/>
<path fill="#212022" d="M335.417 563.38C335.97 563.82 335.715 563.509 335.968 564.452C334.587 566.463 331.82 568.106 329.739 569.571C329.168 569.038 329.398 569.399 329.29 568.365C331.157 566.332 333.19 565.007 335.417 563.38Z"/>
<path fill="#212022" d="M291.602 514.728C292.558 514.841 293.201 514.967 294.143 515.147L294.682 516.217L293.858 515.632C295.202 517.452 294.973 516.481 294.706 518.611C292.932 518.208 292.368 518.088 290.717 517.334C290.469 515.693 290.421 516.542 291.602 514.728Z"/>
<path fill="#212022" d="M426.883 461.104L427.709 461.387C428.542 462.6 429.872 463.656 430.986 464.657L430.974 465.088L430.308 464.723C428.852 465.67 428.487 466.033 426.749 466.36C426.186 463.961 427.947 465.7 426.883 461.104Z"/>
<path fill="#343536" d="M389.211 421.076C390.483 421.487 389.942 421.147 390.85 422.07C390.545 424.76 390.419 426.256 389.26 428.685L388.627 428.574C387.983 427.51 388.949 422.537 389.211 421.076Z"/>
<path fill="#343536" d="M391.892 353.365C392.364 353.577 392.759 353.906 393.197 354.215C392.751 356.182 391.915 356.587 390.433 358.236C389.138 357.737 389.657 358.132 388.836 356.995C389.116 355.622 390.772 354.402 391.892 353.365Z"/>
<path fill="#212022" d="M317.006 569.416L317.517 569.516L317.947 570.22C317.45 571.957 316.08 574.116 314.412 574.916L314.732 573.584L313.851 572.467L313.955 571.671L317.006 569.416Z"/>
<path fill="#212022" d="M326.15 496.869C329.753 500.197 328.569 497.447 331.088 499.388L330.391 500.551L329.679 500.491C328.605 499.603 329.24 499.839 327.815 499.622L326.559 500.828C326.308 500.123 326.041 499.424 325.76 498.731L325 498.756L325.072 498.155L325.257 498.329C325.663 497.198 325.353 497.677 326.15 496.869Z"/>
<path fill="#212022" d="M331.929 492.781L332.659 493.287L332.442 494.673C333.337 495.482 333.061 495.048 333.428 495.862C331.504 496.007 331.383 496.12 329.861 497.316C328.298 496.996 328.744 497.208 327.393 496.47L327.829 495.916C330.895 495.044 330.699 495.502 331.929 492.781Z"/>
<path fill="#343536" d="M389.141 404.453C389.118 404.902 389.169 404.615 388.782 405.249C388.901 403.778 388.938 399.764 389.346 398.63C389.414 398.967 389.751 399.736 389.892 400.091C391.205 400.254 390.825 400.144 392.069 400.63C391.595 402.182 390.304 403.235 389.141 404.453Z"/>
<path fill="#212022" d="M426.61 426.378C427.269 426.887 428.351 428.465 428.859 429.194L428.612 430.176L426.668 430.312L426.078 431.536L425.502 431.371C425.375 429.228 425.847 428.459 426.61 426.378Z"/>
<path fill="#212022" d="M357.597 575.908L358.134 576.094L358.265 576.803C356.645 578.848 354.309 579.794 352.247 581.697L351.836 581.759L351.895 580.966C353.413 578.786 355.45 577.519 357.597 575.908Z"/>
<path fill="#212022" d="M347.627 460.59C349.071 461.214 349.335 462.209 350.406 463.766L350.104 465.347C348.774 465.27 348.687 465.157 347.418 464.678C346.775 462.905 347.178 462.797 347.627 460.59Z"/>
<path fill="#212022" d="M320.39 483.236L323.859 483.551C323.072 484.743 323.033 484.909 322.414 486.187C321.21 487.152 321.049 487.094 319.772 486.584C319.348 484.713 319.441 485.359 320.39 483.236Z"/>
<path fill="#343536" d="M399.156 386.776C400.061 387.605 399.753 387.217 400.152 388.494C399.825 390.082 399.192 390.549 398.109 391.759C396.765 390.308 397.175 391.128 396.785 389.231C397.379 387.742 397.803 387.68 399.156 386.776Z"/>
<path fill="#212022" d="M461.945 336.586C463.857 336.865 463.156 336.423 464.289 337.632C463.55 339.553 464.074 338.661 462.283 340.187C460.627 339.888 461.308 340.247 460.124 339.162C460.539 337.421 460.359 337.996 461.945 336.586Z"/>
<path fill="#343536" d="M358.563 482.115C358.821 482.327 358.915 482.806 359.069 483.214C356.236 484.628 355.709 484.35 352.827 486.518L352.318 486.399L351.935 485.732C352.809 484.167 356.858 482.628 358.563 482.115Z"/>
<path fill="#212022" d="M307.647 554.196C308.033 554.377 308.59 554.983 308.943 555.315L308.826 556.166C307.873 556.984 307.397 557.435 306.678 558.46C306.267 558.006 305.633 557.019 305.257 556.476C305.617 555.035 305.939 555.283 307.647 554.196Z"/>
<path fill="#212022" d="M267.565 563.776C269.034 563.692 269.346 563.584 270.785 563.96L271.177 564.771L270.127 566.171L269.535 565.461L268.445 565.192C267.222 565.836 267.089 565.83 265.728 566.169C266.15 564.833 266.452 564.835 267.565 563.776Z"/>
<path fill="#343536" d="M366.238 430.878L367.427 431.2C368.3 432.446 368.916 433.545 368.055 434.869L367.393 433.992C365.532 432.445 365.71 434.292 364.054 433.458C366.182 433.011 363.363 433.811 366.238 430.878Z"/>
<path fill="#343536" d="M354.375 464.093L354.537 464.066C356.892 465.643 358.164 464.297 360.109 466.952C357.719 467.019 355.378 466.814 353.831 464.829L354.375 464.093Z"/>
<path fill="#212022" d="M551.193 341.772L552.106 342.469L552.171 343.348C550.694 344.89 550.335 345.347 549.418 347.264L548.408 346.442C548.296 344.446 549.858 343.039 551.193 341.772Z"/>
<path fill="#212022" d="M490.068 345.733L491.028 346.287C491.647 348.559 490.911 350.371 490.154 352.559C489.759 352.256 489.366 351.793 489.011 351.419C489.343 349.518 489.572 347.6 490.068 345.733Z"/>
<path fill="#343536" d="M354.381 429.271L354.968 429.803C354.971 431.245 355.065 432.586 355.146 434.022L354.759 434.455C353.299 433.249 352.959 433.379 352.427 431.854L354.381 429.271Z"/>
<path fill="#343536" d="M377.814 372.984C378.002 373.277 378.19 373.57 378.378 373.863C378.107 375.319 376.88 376.468 375.886 377.669L374.804 376.942L374.813 375.751C375.835 374.186 376.293 374.008 377.814 372.984Z"/>
<path fill="#212022" d="M377.949 472.936C379.234 474.14 379.959 474.548 380.276 476.26C379.804 477.88 379.268 478.114 377.962 479.183L377.793 478.102L378.907 476.707L378.78 475.719L377.279 475.154L376.995 474.398L377.949 472.936Z"/>
<path fill="#212022" d="M290.345 559.996C291.571 559.887 291.489 559.861 292.638 560.29L292.644 561.039C290.987 562.114 291.901 561.794 289.731 561.779C289.373 562.592 289.665 562.285 288.828 562.673L287.867 562.153L288.02 561.143L290.345 559.996Z"/>
<path fill="#212022" d="M376.972 524.769C376.928 525.894 376.99 526.007 377.442 527.009L377.843 527.874L377.42 528.332L374.667 527.833L373.681 527.141L373.757 526.451C375.49 526.09 375.667 526.119 376.972 524.769Z"/>
<path fill="#212022" d="M394.868 400.079C396.293 400.453 395.793 400.041 396.611 401.038L396.062 402.682L396.788 403.388L399.279 402.899L399.581 403.487C398.113 404.08 396.24 404.307 394.832 403.557C394.457 401.808 394.556 401.775 394.868 400.079Z"/>
<path fill="#212022" d="M338.25 571.295C339.266 572.453 338.919 571.777 338.951 573.531C338.213 575.178 337.806 575.355 336.421 576.467L335.76 575.611C336.018 573.987 337.242 572.661 338.25 571.295Z"/>
<path fill="#212022" d="M361.709 464.832C363.722 466.46 363.871 468.586 364.537 471.428C362.614 468.949 360.527 468.097 361.709 464.832Z"/>
<path fill="#212022" d="M287.377 532.622L288.184 532.93C289.045 534.681 290.194 534.864 291.959 535.398L291.912 536.532C289.301 535.891 288.432 536.206 286.876 534.582L287.377 532.622Z"/>
<path fill="#212022" d="M331.012 459.247L332.283 459.543C333.164 460.586 333.367 460.598 333.596 461.897L332.754 462.146L331.152 460.812L330.615 462.468L329.732 462.907C329.467 461.194 329.927 461.2 331.012 459.247Z"/>
<path fill="#212022" d="M393.301 478.377C393.589 478.735 394.847 481.546 395.228 482.306L394.022 482.253L393.002 482.638L392.611 482.135C392.313 479.671 392.191 480.664 393.301 478.377Z"/>
<path fill="#343536" d="M417.055 453.049L418.099 453.393C418.724 455.206 418.426 456.593 417.373 458.151L416.73 458.355L416.075 457.986C416.361 455.959 416.489 454.995 417.055 453.049Z"/>
<path fill="#343536" d="M374.588 436.734L375.309 437.659C375.011 439.996 374.503 440.481 373.215 442.559C371.773 440.98 373.591 438.115 374.588 436.734Z"/>
<path fill="#212022" d="M374.306 516.08L375.248 515.731C375.695 516.623 375.474 516.298 375.194 517.694C376.984 518.017 377.188 517.711 378.078 518.784L375.74 519.596C375.233 518.753 375.053 518.704 374.195 518.255L373.364 517.829L373.514 517.235L373.962 517.936L373.888 517.092L374.291 516.56L374.306 516.08Z"/>
<path fill="#212022" d="M411.484 432.652L412.638 433.295C413.119 434.941 412.334 436.137 411.652 437.809C410.426 436.831 410.879 437.426 410.291 435.923C410.758 434.762 411.088 433.827 411.484 432.652Z"/>
<path fill="#343536" d="M400.697 408.586C402.058 409.061 402.018 408.973 403.007 409.995C402.953 411.536 403.1 410.774 402.043 412.235C401.425 411.901 401.838 412.027 400.682 411.996C399.948 410.711 400.36 410.485 400.697 408.586Z"/>
<path fill="#212022" d="M378.905 396.862C379.879 397.038 379.713 397.032 380.636 397.441C380.761 398.843 380.868 400.247 380.955 401.651L379.506 400.816C378.449 399.014 378.818 399.343 378.905 396.862Z"/>
<path fill="#212022" d="M267.663 555.723C268.777 556.276 269.366 556.594 270.557 556.963L271.347 557.202C270.155 557.746 269.906 557.721 268.596 558.03C267.239 557.323 268.709 558.288 266.035 558.612C266.086 558.27 266.14 557.928 266.196 557.586L266.412 558.27L266.823 557.981L266.577 556.849L267.663 555.723Z"/>
<path fill="#212022" d="M378.54 484.992C379.895 485.463 381.261 485.872 382.594 486.405L382.708 487.253L381.039 489.175L380.899 488.723L381.184 487.766C380.1 486.468 380.7 487.042 378.728 486.447L378.54 484.992Z"/>
<path fill="#212022" d="M341.444 520.648L342.57 521.099C343.185 522.591 343.055 522.794 342.98 524.385L342.228 524.687L341.345 524.835C341.22 523.082 341.091 522.406 341.444 520.648Z"/>
<path fill="#212022" d="M396.064 460.788C396.951 461.799 397.434 462.56 398.17 463.663L397.256 464.409C396.579 464.274 396.319 464.41 395.657 464.564L395.037 464.162L396.064 460.788Z"/>
<path fill="#343536" d="M280.58 577.278L280.767 577.405L280.885 578.235C279.706 579.587 278.309 579.776 276.547 580.325L276.277 579.722C277.099 578.38 279.014 577.896 280.58 577.278Z"/>
<path fill="#343536" d="M361.966 488.75C363.783 490.043 362.683 489.885 365.347 490.908L364.872 491.033C364.068 491.504 363.255 492.019 362.459 492.507L361.93 491.978L361.966 488.75Z"/>
<path fill="#212022" d="M343.805 526.35L345.078 526.852L345.268 527.715C344.567 528.634 343.887 529.569 343.228 530.519L343.4 531.306L342.931 530.946L343.127 530.741C343.24 529.081 343.367 527.972 343.805 526.35Z"/>
<path fill="#343536" d="M380 412.622C380.892 413.267 382.437 415.128 382.638 416.197C380.832 415.933 380.255 416.205 379.279 415.173L380 412.622Z"/>
<path fill="#212022" d="M572.452 328.602C574.587 328.595 574.825 328.193 576.071 329.242L575.944 330.796C573.815 330.536 573.428 330.878 572.168 329.723L572.452 328.602Z"/>
<path fill="#212022" d="M402.618 508.828C403.805 509.315 404.494 509.605 405.738 509.937L406.627 510.169L406.777 511.203C404.532 511.298 404.261 511.713 402.77 510.729L402.618 508.828Z"/>
<path fill="#212022" d="M287.554 537.49C288.512 538.272 289.395 538.41 290.586 538.756L288.142 539.792C286.329 539.797 288.02 540.268 286.01 540.074L285.882 539.466L287.554 537.49Z"/>
<path fill="#212022" d="M339.129 561.116C340.666 561.135 341.676 561.033 343.128 561.566L343.49 562.923C342.201 563.335 342.28 563.297 340.922 563.173C339.254 562.149 339.796 562.841 339.129 561.116Z"/>
<path fill="#343536" d="M270.336 541.125L274.225 541.33L274.386 542.278L274.019 542.918C272.502 543.268 272.576 543.177 271.071 542.672L270.336 541.125Z"/>
<path fill="#212022" d="M390.238 537.547L390.881 537.72C390.713 539.104 389.901 539.452 388.68 540.726C387.8 539.8 387.803 539.804 387.196 538.68C387.962 537.75 388.736 537.887 390.238 537.547Z"/>
<path fill="#343536" d="M400.125 417.179L400.54 417.56L400.251 418.495C398.82 419.109 397.859 419.568 396.476 420.286L396.09 419.754C396.717 418.551 398.773 417.828 400.125 417.179Z"/>
<path fill="#343536" d="M319.483 528.093L319.952 528.736C319.486 530.158 318.617 530.613 317.426 531.556L316.571 530.331C317.171 528.913 317.738 529.036 319.483 528.093Z"/>
<path fill="#212022" d="M351.982 556.473C352.585 557.153 352.321 556.797 352.287 558.142C351.106 560.019 351.903 559.336 349.716 560.148L349.244 559.671C349.55 558.124 350.493 557.805 351.982 556.473Z"/>
<path fill="#343536" d="M385.642 412.302L386.168 412.901C386.103 414.669 385.573 414.774 384.345 416.538L383.689 415.443C383.671 413.756 384.031 414.006 385.642 412.302Z"/>
<path fill="#343536" d="M407.645 468.047C409.073 468.457 409.425 468.324 410.928 468.315L411.151 468.89L410.225 469.22L407.888 470.601L407.305 470.373L407.645 468.047Z"/>
<path fill="#212022" d="M472.542 359.734C473.963 360.406 473.558 359.871 474.026 361.177L472.61 363.298L471.379 362.55L471.185 361.603L472.542 359.734Z"/>
<path fill="#212022" d="M330.402 539.272L331.169 539.012C330.86 540.335 330.806 539.712 331.499 540.899L332.785 540.602L333.482 541.188C333.023 541.536 332.36 541.927 331.859 542.245L330.598 541.732C329.875 540.105 329.905 540.9 330.402 539.272Z"/>
<path fill="#212022" d="M341.183 433.226L342.517 435.075C341.783 435.954 341.696 436.63 341.413 437.724L340.455 437.839L340.068 437.284C340.953 435.544 341.104 435.169 341.183 433.226Z"/>
<path fill="#212022" d="M306.615 587.993C306.97 588.143 306.714 587.99 307.506 588.766C306.732 590.036 305.983 589.994 304.309 590.739C303.852 590.74 304.13 590.794 303.596 590.277C304.298 589.166 305.447 588.68 306.615 587.993Z"/>
<path fill="#343536" d="M383.645 448.576L384.372 448.331L384.186 449.467C382.805 450.826 383.639 450.405 381.478 450.512L381.225 450.742L380.604 450.361C381.484 449.457 382.457 449.256 383.645 448.576Z"/>
<path fill="#212022" d="M279.345 595.882L279.838 596.34C279.54 597.705 278.461 598.548 277.453 599.606L276.722 598.62C277.1 596.919 277.396 597.242 279.345 595.882Z"/>
<path fill="#212022" d="M337.721 503.427C338.627 503.693 338.17 503.459 339.012 504.268C338.593 505.652 338.241 505.587 336.985 506.725L336.296 506.39L336.151 505.587L337.721 503.427Z"/>
<path fill="#343536" d="M275.68 531.462L276.293 531.694C275.874 533.346 275.283 533.474 273.89 534.916C273.301 534.797 273.674 534.923 272.916 534.247C273.538 532.831 274.34 532.52 275.68 531.462Z"/>
<path fill="#212022" d="M395.715 429.824L396.491 429.392C397.379 431.176 397.232 430.257 396.911 432.253L396.17 431.836C395.755 431.929 395.956 431.955 395.571 431.744C395.272 430.371 395.137 430.986 395.715 429.824Z"/>
<path fill="#212022" d="M394.154 512.435L395.307 511.969L397.732 513.907L397.782 514.722C396.353 514.515 395.592 513.827 394.27 513.036L394.154 512.435Z"/>
<path fill="#343536" d="M391.348 380.094L392.357 380.765C392.818 382.343 392.275 382.73 391.591 384.661C390.396 382.857 390.925 382.398 391.348 380.094Z"/>
<path fill="#343536" d="M426.132 443.249L426.785 443.921C426.348 445.777 426.032 446.188 425.121 447.81L424.464 447.127C424.327 445.691 425.318 444.563 426.132 443.249Z"/>
<path fill="#212022" d="M358.769 591.971C360.211 592.26 361.923 592.738 362.767 593.95C360.606 593.938 360.253 594.311 358.758 593.342L358.769 591.971Z"/>
<path fill="#212022" d="M285.888 577.204C287.781 577.538 287.2 577.055 288.153 578.185L287.165 579.735C286.376 579.867 286.118 579.83 285.316 579.832C284.915 578.655 285.219 578.732 285.888 577.204Z"/>
<path fill="#212022" d="M402.335 535.405L402.798 535.937C402.73 537.601 402.243 537.507 400.71 539.13L400.182 538.567C400.596 536.836 400.948 536.933 402.335 535.405Z"/>
<path fill="#212022" d="M272.408 565.27C273.847 566.107 273.362 565.535 274.017 566.948L273.274 568.953L272.328 568.806L271.815 568.033L272.408 565.27Z"/>
<path fill="#212022" d="M361.766 571.851C363.332 572.011 363.311 572.213 364.745 573.031L364.827 573.704L364.089 574.267C362.599 573.755 362.859 573.507 361.766 571.851Z"/>
<path fill="#212022" d="M397.411 490.863C398.412 492.137 398.075 493.173 397.887 494.691L397.004 495.34L396.787 495.195C396.537 493.54 396.978 492.483 397.411 490.863Z"/>
<path fill="#212022" d="M338.311 545.405C338.628 545.733 339.447 546.878 339.77 547.305L339.358 547.829L337.489 547.453L336.573 547.638L336.213 547.155L338.311 545.405Z"/>
<path fill="#212022" d="M331.409 587.527L331.734 588.048C331.15 589.226 330.596 590.163 329.933 591.285L328.969 590.412C329.366 588.892 329.987 588.8 331.409 587.527Z"/>
<path fill="#343536" d="M387.366 508.837C387.565 509.031 387.923 509.718 388.083 509.995C387.716 511.658 387.754 511.184 386.176 512.572L385.872 512.236C385.743 510.771 386.383 510.417 387.366 508.837Z"/>
<path fill="#212022" d="M367.584 546.213C367.791 546.481 367.997 546.749 368.204 547.018C366.969 548.278 366.978 547.958 365.033 548.548L364.587 548.141L364.84 547.378L367.584 546.213Z"/>
<path fill="#212022" d="M273.419 569.726C274.466 569.853 274.303 569.863 275.313 570.24L275.297 571.114L274.023 572.227C272.513 571.886 272.913 572.294 272.286 571.378L273.419 569.726Z"/>
<path fill="#343536" d="M290.938 570.748C292.055 570.776 293.172 570.781 294.289 570.763L294.74 571.782C292.619 571.75 292.461 572.345 290.495 571.709L290.938 570.748Z"/>
<path fill="#343536" d="M372.775 545.105C374.391 545.648 373.921 545.149 374.706 546.261L373.525 548.018C372.226 547.278 372.58 547.691 371.809 546.547L372.775 545.105Z"/>
<path fill="#212022" d="M361.593 547.74L362.321 548.302C362.417 549.692 361.944 549.721 360.813 551.193L360.197 550.575C360.112 549.05 360.357 549.319 361.593 547.74Z"/>
<path fill="#212022" d="M346.061 603.631C347.059 604.067 346.649 603.728 347.268 604.673L346.168 607.203L345.261 606.506C344.952 605.029 345.167 605.331 346.061 603.631Z"/>
<path fill="#212022" d="M344.421 514.077C346.764 513.95 346.914 513.648 348.21 515.389C346.885 515.624 346.1 515.916 344.861 515.422L344.421 514.077Z"/>
<path fill="#343536" d="M281.794 529.236L283.077 530.078C283.708 531.722 283.508 531.216 283.045 533.249L282.332 532.701C281.789 530.992 281.819 531.04 281.794 529.236Z"/>
<path fill="#212022" d="M345.018 521.77L345.703 521.602C346.305 522.581 345.862 524.778 345.75 526.192C344.89 524.945 344.727 523.22 345.018 521.77Z"/>
<path fill="#343536" d="M303.566 520.097L303.953 520.393L303.939 521.174L301.179 522.53L300.604 522.042C301.193 520.782 301.902 520.858 303.566 520.097Z"/>
<path fill="#343536" d="M353.994 468.945C354.96 470.085 354.783 469.448 354.861 470.773L352.922 472.008L352.471 471.926L352.167 471.35L353.994 468.945Z"/>
<path fill="#212022" d="M404.131 503.199C405.395 503.092 406.222 502.854 407.278 503.498L407.268 505.015C405.519 504.3 405.154 504.484 404.131 503.199Z"/>
<path fill="#212022" d="M319.503 593.431L320.094 594.25C319.552 595.571 319.333 595.304 317.691 596.167L317.267 595.778L317.28 595.106L319.503 593.431Z"/>
<path fill="#343536" d="M406.774 480.847C407.118 482.086 407.054 481.608 406.894 482.918L406.013 483.414C405.365 483.155 405.657 483.376 405.237 482.636L406.774 480.847Z"/>
<path fill="#212022" d="M367.576 476.685L368.09 476.671C368.351 478.259 368.581 478.875 369.088 480.36C367.762 479.204 367.658 479.263 367.067 477.543L367.576 476.685Z"/>
<path fill="#343536" d="M338.115 497.335C339.012 498.007 338.631 497.58 339.205 498.663L337.473 499.861L336.46 499.222L336.295 498.403L338.115 497.335Z"/>
<path fill="#343536" d="M346.791 500.831C347.362 502.834 346.657 503.053 345.504 504.526C344.794 502.294 345.363 502.314 346.791 500.831Z"/>
<path fill="#212022" d="M391.794 521.826C392.086 522.082 392.269 522.441 392.493 522.759L391.651 525.604C390.825 524.213 390.975 524.771 390.734 523.244L391.794 521.826Z"/>
<path fill="#343536" d="M374.275 462.743C374.744 462.601 374.432 462.651 375.216 462.841L375.187 464.627C374.031 464.066 374.567 464.42 373.585 463.558L374.275 462.743Z"/>
<path fill="#212022" d="M315.186 578.339C315.711 578.831 315.448 578.489 315.749 579.503L314.23 581.601L313.932 581.167C313.789 579.494 313.775 580.081 315.186 578.339Z"/>
<path fill="#343536" d="M333.975 534.428C334.999 533.965 334.448 534.052 335.636 534.235L335.697 535.169C334.837 535.247 334.162 535.266 333.301 535.293L333.975 534.428Z"/>
<path fill="#212022" d="M354.332 589.387C354.905 589.966 354.642 589.577 354.896 590.675L353.428 592.216C352.803 591.535 353.017 591.947 352.854 590.944L354.332 589.387Z"/>
<path fill="#343536" d="M370.876 516.869C370.999 517.676 370.938 517.86 370.897 518.682L369.994 519.024C369.742 518.909 369.927 519.025 369.342 518.427L370.876 516.869Z"/>
<path fill="#212022" d="M365.502 528.218L366.312 528.219L365.668 530.493C364.486 529.469 364.716 530.069 364.497 528.834L365.502 528.218Z"/>
<path fill="#343536" d="M405.575 484.844C405.774 485.052 406.098 485.664 406.262 485.944L405.662 487.182L404.972 487.384L404.529 487.061L405.575 484.844Z"/>
<path fill="#212022" d="M335.961 508.149L336.739 508.247L335.754 510.299C334.817 509.511 335.108 510.013 334.903 508.78L335.961 508.149Z"/>
<path fill="#343536" d="M344.043 477.205L344.907 477.245L344.138 478.048C343.556 477.961 343.936 478.048 343.052 477.61L344.043 477.205Z"/>
<path fill="#212022" d="M277.865 582.308L278.614 581.749L277.929 582.417C277.559 582.926 277.811 582.659 277.082 583.121L277.865 582.308Z"/>
<path fill="#212022" d="M361.363 584.737L361.882 584.435L362.406 584.694L361.601 585.381L360.707 586.234L360.583 585.595L361.363 584.737Z"/>
<path fill="#C2C1C2" d="M623.318 513.017L623.709 513.976C622.429 515.522 622.104 516.136 622.671 517.917L622.062 518.479L621.29 518.471C620.246 517.323 620.529 517.974 620.36 516.476C621.191 514.337 621.313 514.312 623.318 513.017Z"/>
<path fill="#C2C1C2" d="M654.176 557.058L654.628 557.021L655.185 557.497C654.704 558.752 653.324 559.606 652.214 560.503C651.054 560 651.461 560.411 650.955 559.31C652.184 558.221 652.802 557.888 654.176 557.058Z"/>
<path fill="#C2C1C2" d="M750.104 386.66C751.096 387.257 750.766 386.963 751.386 387.981C751.58 389.704 751.389 389.806 750.729 391.383L749.382 390.63C748.96 388.615 749.241 388.961 750.104 386.66Z"/>
<path fill="#C2C1C2" d="M637.748 541.33L638.217 541.107L638.428 541.939C637.577 543.441 636.838 543.572 635.255 544.294L634.547 544.199L634.478 543.485C635.547 542.176 636.22 542.022 637.748 541.33Z"/>
<path fill="#C2C1C2" d="M745.622 404.789C747.154 405.782 746.718 405.128 747.254 406.592L746.244 408.536L745.017 408.193C744.429 406.78 744.872 406.74 745.622 404.789Z"/>
<path fill="#C2C1C2" d="M602.029 501.718C603.661 502.599 603.387 502.026 603.775 503.231L602.63 504.693L600.951 504.575L600.636 503.887L602.029 501.718Z"/>
<path fill="#C2C1C2" d="M627.357 508.965L627.662 509.443C627.354 511.054 627.12 510.715 625.276 512.031L624.734 510.718C625.43 509.273 625.289 509.722 627.357 508.965Z"/>
<path fill="#C2C1C2" d="M590.683 505.188L591.59 505.704C591.849 507.183 591.501 507.041 590.435 508.738L589.602 508.552C589.493 506.902 589.827 506.929 590.683 505.188Z"/>
<path fill="#C2C1C2" d="M613.52 512.69C614.714 513.231 614.273 512.804 614.855 513.961L614.037 515.681L613.309 515.678C612.701 514.304 612.981 514.543 613.52 512.69Z"/>
<path fill="#C2C1C2" d="M600.212 518.733C601.588 518.986 601.74 518.859 602.744 519.76L601.928 520.606L600.171 520.849L599.626 520.346L600.212 518.733Z"/>
<path fill="#C2C1C2" d="M625.487 518.802L626.613 518.255L627.001 518.628L625.91 520.379C624.705 519.914 625.137 520.302 624.533 519.313L625.487 518.802Z"/>
<path fill="#212022" d="M564.481 456.58C563.313 457.252 563.467 457.456 563.078 458.729L562.767 456.767C560.594 457.25 558.876 459.799 556.597 460.371L556.988 459.364C554.651 458.437 553.145 463.268 549.93 463.851C549.96 462.946 550.035 463.367 549.744 462.584C539.566 468.203 531.896 469.441 523.132 478.219C519.095 481.045 512.418 483.62 508.805 486.645C501.564 492.709 493.836 498.51 488.329 506.16L488.358 503.858L487.983 503.831C486.012 507.629 473.077 521.666 472.969 522.625C474.279 522.177 474.364 521.982 475.639 522.033C473.843 524.051 472.655 523.413 472.388 523.743C469.089 527.822 465.53 531.863 463.201 536.559C461.641 539.705 459.439 544.381 457.236 546.701L456.168 546.713L456.089 545.96C459.476 541.57 460.222 539.054 462.851 534.611C465.684 529.823 470.257 525.096 473.072 520.024C474.836 516.846 478.617 513.712 480.893 510.892C491.551 497.374 505.559 486.933 519.71 477.212C531.836 469.443 544.833 462.382 558.305 457.217C566.07 454.24 574.85 452.571 582.616 449.049C585.973 447.526 591.624 447.213 595.341 446.36C597.566 445.85 601.164 444.864 603.441 445.143C606.293 445.863 607.421 443.868 609.872 444.543L609.686 445.113C608.01 445.822 605.265 447.156 603.572 447.308L603.913 446.155C603.198 446.072 602.206 445.886 601.549 446.109C590.236 449.944 578.471 452.695 566.946 455.441L566.409 456.309C566.873 457.89 566.693 457.45 565.973 459.368L565.316 459.275C564.735 457.877 564.708 458.56 565.155 457.19L564.481 456.58Z"/>
<path fill="#212022" d="M564.481 456.58C565.689 455.249 564.939 455.699 566.946 455.441L566.409 456.309C566.873 457.89 566.693 457.45 565.973 459.368L565.316 459.275C564.735 457.877 564.708 458.56 565.155 457.19L564.481 456.58Z"/>
<path fill="#212022" d="M588.759 539.699C590.238 539.458 596.075 539.677 597.031 540.365C600.15 542.61 605.578 540.11 608.094 542.316C598.704 544.397 589.98 538.898 580.187 542.304C578.875 542.76 579.189 544.332 576.699 544.289L576.162 542.947C574.533 542.341 571.124 543.88 569.384 544.167C560.714 545.597 555.249 549.879 547.918 554.112C544.427 556.128 539.711 556.875 536.113 559.64C531.887 562.233 528.057 567.283 524.116 569.957C518.564 573.724 514.439 576.048 509.773 581.281C507.199 584.167 504.944 585.95 502.514 589.283C499.936 592.784 492.916 600.957 489.915 604.54C489.602 602.962 492.373 601.166 492.596 599.269C492.773 596.845 495.162 595.454 496.363 593.844C505.571 581.501 516.249 571.86 529.182 563.532C534.603 560.042 540.179 555.179 545.866 551.903C548.492 550.39 551.097 549.703 553.904 548.645C555.988 547.762 558.068 545.676 560.335 544.972C569.893 541.802 578.9 540.698 588.759 539.699Z"/>
<path fill="#212022" d="M451.391 559.27L452.423 559.638L451.13 560.437C450.941 565.09 448.207 568.696 448.213 572.963L447.293 571.68L446.51 571.584L446.128 572.696C445.81 574.724 445.781 575.423 444.286 576.714L443.9 576.243C444.515 571.426 448.071 562.785 451.391 559.27Z"/>
<path fill="#212022" d="M587.029 544.656L587.874 545.101C589.075 544.792 588.469 544.846 589.694 544.932C589.893 547.63 588.242 550.92 585.939 552.373L585.265 552.444C583.935 550.613 586.594 551.016 586.718 547.634L585.432 546.971L585.331 546.394L587.029 544.656Z"/>
<path fill="#343536" d="M246.476 383.997C247.311 384.898 246.966 384.388 247.231 385.739C246.137 388.026 243.551 389.282 241.34 390.696L240.748 390.289L240.691 389.4C242.115 387.203 244.391 385.665 246.476 383.997Z"/>
<path fill="#252526" d="M532.76 476.508L533.389 476.802L532.771 476.957L533.61 478.129L533.875 477.711C534.667 478.11 534.307 477.788 534.723 478.888L533.509 480.982C531.933 481.712 531.244 481.62 529.888 480.775L529.777 479.79C530.725 477.55 530.535 478.188 532.76 476.508Z"/>
<path fill="#343536" d="M246.353 345.403L247.482 346.367C247.551 348.15 244.936 350.886 243.771 352.315C242.423 351.582 242.52 351.324 242.515 350.029C243.457 347.93 244.693 347.005 246.353 345.403Z"/>
<path fill="#252526" d="M571.125 570.156C572.931 570.544 573.452 570.136 575.522 570.433C575.847 571.817 575.577 571.578 574.558 573.245L574.153 574.032L573.391 574.225C572.718 573.035 572.393 572.261 571.224 571.462L571.125 570.156Z"/>
<path fill="#343536" d="M250.442 367.181C251.769 367.252 251.731 367.163 252.816 367.892C252.615 369.487 251.482 370.254 250.24 371.655L249.47 371.837L248.756 371.264C248.806 369.638 249.614 368.62 250.442 367.181Z"/>
<path fill="#212022" d="M606.385 601.515C606.784 601.851 606.518 601.589 606.951 602.484C606.199 603.888 603.749 605.213 602.311 606.159C601.668 605.517 601.941 605.932 601.659 604.82C602.685 603.254 604.682 602.442 606.385 601.515Z"/>
<path fill="#252526" d="M479.522 552.612L480.083 552.386L480.336 553.107L479.488 554.305C477.439 555.225 478.183 554.977 475.64 554.583C475.257 554.087 475.347 553.975 475.2 553.266C477.486 551.928 476.25 554.032 479.522 552.612Z"/>
<path fill="#212022" d="M594.255 453.753C595.633 455.179 593.999 453.739 595.082 457.358L595.733 457.769L595.825 459.042C593.77 459.112 593.674 459.159 592.642 457.568C592.722 455.591 593.094 455.331 594.255 453.753Z"/>
<path fill="#343536" d="M281.98 339.552C282.57 339.298 283.254 339.407 283.736 339.832C284.219 340.256 284.413 340.921 284.236 341.538C284.058 342.156 283.541 342.616 282.907 342.721C282.078 342.857 281.277 342.353 281.041 341.546C280.805 340.74 281.208 339.884 281.98 339.552Z"/>
<path fill="#212022" d="M617.646 587.858L618.615 588.502C618.416 590.003 617.26 590.903 616.137 592.239C615.457 591.862 615.617 591.888 615.087 591.234C615.267 589.884 616.598 588.907 617.646 587.858Z"/>
<path fill="#212022" d="M579.455 464.225L580.568 464.294L580.542 464.971C579.274 466.011 578.003 466.272 576.436 466.786L575.711 466.666L575.721 466.033C576.965 464.896 577.862 464.75 579.455 464.225Z"/>
<path fill="#212022" d="M513.953 488.842C514.694 489.371 515.179 490.114 515.77 490.847C515.576 492.677 515.703 492.054 513.934 493.657L513.584 493.243C513.338 490.597 512.902 490.851 513.953 488.842Z"/>
<path fill="#212022" d="M673.833 458.68L675.012 459.813C675.144 461.956 674.969 461.496 673.886 463.719L673.029 462.921C672.684 461.494 673.354 460.147 673.833 458.68Z"/>
<path fill="#212022" d="M489.696 521.161L490.616 521.627C490.98 523.668 490.951 523.559 492.232 525.206C491.206 525.307 490.8 525.283 489.764 525.233L489.244 524.573L489.696 521.161Z"/>
<path fill="#212022" d="M530.022 603.915L530.716 604.527C530.572 606.486 530.21 606.355 528.892 608.26L527.869 607.601C527.914 605.842 528.598 605.675 530.022 603.915Z"/>
<path fill="#252526" d="M457.644 636.736C457.992 636.823 458.536 637.131 458.885 637.304C458.8 638.943 458.252 639.024 456.97 640.615L456.026 639.994C456.101 638.413 456.583 638.284 457.644 636.736Z"/>
<path fill="#212022" d="M465.588 562.165L467.181 562.811L467.236 563.566L464.899 565.57L464.258 566.024C464.17 564.384 464.77 563.806 465.588 562.165Z"/>
<path fill="#212022" d="M479.945 517.456L480.303 518.038L482.583 517.401L482.905 517.953L482.299 518.973C481.14 519.441 480.155 519.796 478.981 520.203C479.259 519.139 479.538 518.482 479.945 517.456Z"/>
<path fill="#212022" d="M496.183 500.776L496.905 501.589C496.349 502.714 496.413 502.166 496.538 503.203L497.717 503.489L497.256 504.323C495.396 504.477 496.156 504.737 494.814 503.844C494.841 502.218 495.099 502.408 496.183 500.776Z"/>
<path fill="#252526" d="M526.19 601.238L527.135 602.275C527.332 603.939 527.265 603.42 526.206 605.207L524.934 604.356L524.743 603.362L526.19 601.238Z"/>
<path fill="#343536" d="M265.892 413.195C266.806 413.622 266.468 413.416 267.146 414.267C266.732 415.67 266.447 415.557 265.213 416.72C264.142 415.964 264.424 416.48 264.204 415.228L265.892 413.195Z"/>
<path fill="#252526" d="M583.726 569.421L584.289 570.152C584.004 571.878 583.775 571.623 582.372 573.189L581.579 572.422C581.833 570.852 582.356 570.826 583.726 569.421Z"/>
<path fill="#212022" d="M600.977 564.183L602.116 564.555C603.259 565.801 602.895 565.509 603.127 567.583L601.769 567.729L601.054 567.066L600.977 564.183Z"/>
<path fill="#252526" d="M531.723 613.303C532.38 613.251 532.971 613.703 533.094 614.35C533.217 614.998 532.832 615.635 532.202 615.827C531.728 615.972 531.214 615.833 530.877 615.469C530.541 615.106 530.441 614.583 530.621 614.121C530.801 613.66 531.229 613.342 531.723 613.303Z"/>
<path fill="#252526" d="M519.181 609.705L520.125 610.407L520.09 611.197L518.153 612.65L517.24 611.797C517.483 610.5 517.709 610.75 519.181 609.705Z"/>
<path fill="#212022" d="M578.422 457.464C578.926 457.979 578.718 457.628 578.754 458.641L576.722 460.592C575.927 459.608 576.145 460.156 576.223 458.86L578.422 457.464Z"/>
<path fill="#212022" d="M492.636 508.14L494.916 510.292L494.888 510.826L493.879 511.147L493.064 511.441C492.784 509.992 492.64 509.631 492.636 508.14Z"/>
<path fill="#212022" d="M473.315 539.283L475.137 540.241L473.772 541.806C473.544 541.89 472.698 541.963 472.417 541.997L472.183 541.323L473.315 539.283Z"/>
<path fill="#252526" d="M492.636 508.14L491.521 508.401C490.962 506.575 490.97 507.478 491.585 505.598L492.866 504.96L492.547 507.424L492.636 508.14Z"/>
<path fill="#252526" d="M671.116 447.838L671.53 448.239C671.717 450.009 671.17 450.63 670.454 452.447L670.142 452.324C670.066 450.012 670.066 449.938 671.116 447.838Z"/>
<path fill="#212022" d="M550.132 473.865L550.763 474.805C550.505 476.142 550.348 476.94 550.251 478.303L550.183 479.307L549.359 478.32C549.535 476.375 549.531 475.689 550.132 473.865Z"/>
<path fill="#212022" d="M737.921 439.839C738.655 440.406 738.382 440.029 738.65 441.032L736.882 442.955L736.261 442.903C736.101 441.648 736.874 441.23 737.921 439.839Z"/>
<path fill="#212022" d="M557.613 465.96C558.442 465.689 558.116 465.821 559.205 466.098L559.364 467.029C558.368 467.299 558.845 467.203 557.652 466.873L557.613 465.96Z"/>
<path fill="#252526" d="M540.296 568.874L540.665 569.233C540.967 570.737 540.605 570.6 539.545 572.362L539.057 572.088C538.879 570.417 539.139 570.702 540.296 568.874Z"/>
<path fill="#252526" d="M449.593 577.598C450.746 578.087 450.352 577.671 450.948 578.694L449.688 580.601C448.81 580.408 449.195 580.637 448.605 579.801L449.593 577.598Z"/>
<path fill="#212022" d="M490.868 515.494L491.172 515.938C491.034 517.669 491.315 516.918 490.381 518.306C489.811 518.405 490.155 518.393 489.355 518.187L490.868 515.494Z"/>
<path fill="#212022" d="M581.769 455.276C582.706 455.8 582.34 455.419 582.814 456.468L581.773 458.169C580.583 457.899 581.006 458.226 580.417 457.311L581.769 455.276Z"/>
<path fill="#212022" d="M492.866 504.96L494.355 505.354L494.789 506.216C493.689 507.486 494.371 507.027 492.547 507.424L492.866 504.96Z"/>
<path fill="#212022" d="M545.372 578.836L546.304 578.615L546.495 579.175L545.631 579.692L544.643 579.864L544.536 579.321L545.372 578.836Z"/>
</svg>