<?xml version="1.0" encoding="utf-8"?>
<svg xmlns="http://www.w3.org/2000/svg" viewBox="70 79 858 858" width="512" height="512">
<rect x="70" y="79" width="858" height="858" rx="154" ry="154" fill="#16161e"/>
<path fill="#D6D5D6" d="M254.491 485.87C278.46 467.682 294.833 442.897 298.663 412.555C303.134 377.141 307.445 345.313 323.765 313.019C349.111 263.923 392.967 226.943 445.64 210.255C465.473 203.79 478.728 202.187 499.433 201.262C539.017 199.492 564.784 211.154 600.036 226.631L636.352 242.269L686.231 263.923C724.937 280.6 758.577 292.021 772.985 336.292C779.132 355.779 777.885 378.03 768.496 395.633C748.033 433.995 707.447 440.71 667.975 438.991C653.152 438.346 636.675 439.6 621.75 439.356C553.673 441.741 485.715 481.409 453.472 541.913C434.457 577.595 429.238 621.118 441.581 659.853C453.543 696.249 479.286 726.513 513.292 744.159C530.753 753.14 539.561 754.966 557.888 759.571C562.862 759.609 569.586 760.867 575.105 761.062C665.966 764.295 748.655 674.808 723.074 583.795C720.692 575.322 717.538 570.648 714.235 562.989C712.191 560.381 709.676 556.102 707.292 553.02C700.479 544.212 694.748 539.161 686.068 532.669C682.121 530.469 678.109 527.624 674.174 525.64C665.551 521.292 656.798 519.785 647.926 517.226C656.496 524.467 663.365 530.511 669.852 540.207C715.918 609.059 663.918 701.226 584.368 707.814C575.811 708.522 561.89 707.953 553.668 704.756C546.012 703.188 515.747 690.454 513.937 682.996C515.909 682.152 523.71 685.872 526.417 686.876C584.196 705.79 654.437 651.921 650.122 590.99C648.811 572.476 641.775 559.837 628.004 547.835C585.473 519.262 539.353 543.414 507.324 575.382C498.468 584.221 491.182 592.048 484.19 602.536L481.746 606.232C481.999 603.753 482.189 601.019 482.721 598.608C485.63 576.93 495.588 555.873 509.192 538.853C534.941 506.731 572.341 486.086 613.244 481.417C690.135 472.959 756.149 525.021 763.834 602.411C768.379 648.172 753.428 692.02 724.06 727.116C629.467 840.157 442.162 837.597 333.074 747.39C316.386 733.6 301.265 719.803 287.381 703.232C250.329 658.203 227.433 603.216 221.579 545.198C216.839 489.8 227.915 434.195 253.519 384.841C256.425 379.145 263.342 365.19 266.968 360.796C265.921 368.681 263.782 377.01 262.677 385.505C258.492 417.689 254.13 453.506 254.491 485.87Z" />
<path fill="#C2C1C2" d="M772.985 336.292C779.132 355.779 777.885 378.03 768.496 395.633C748.033 433.995 707.447 440.71 667.975 438.991C653.152 438.346 636.675 439.6 621.75 439.356C553.673 441.741 485.715 481.409 453.472 541.913C434.457 577.595 429.238 621.118 441.581 659.853C453.543 696.249 479.286 726.513 513.292 744.159C530.753 753.14 539.561 754.966 557.888 759.571C551.364 762.041 534.039 755.672 527.76 753.163C500.952 742.598 477.666 724.687 460.577 701.487C445.576 681.109 436.379 657.046 433.966 631.857C432.644 616.738 434.473 599.637 434.537 584.376C434.559 579.327 438.467 573.63 437.81 567.088L437.758 566.6L438.908 566.363L439.968 565.451L440.017 564.518C439.392 564.17 438.994 563.94 438.384 563.549C442.886 560.655 448.347 546.982 450.315 542.006C451.036 540.184 453.901 537.261 454.662 535.143C455.13 534.144 456.134 527.99 456.756 527.623C461.311 524.929 462.603 522.225 465.506 518.397C469.404 513.257 473.891 507.726 478.226 503.066C485.03 495.751 493.379 489.552 499.964 482.033C505.078 475.821 506.008 476.852 512.605 472.083C512.853 471.31 513.065 470.649 513.241 470.098C518.547 466.323 528.806 464.14 534.085 458.247C534.842 457.402 550.275 451.383 552.247 451.431C558.759 451.589 565.865 445.774 571.519 442.579C573.309 441.7 576.768 442.427 578.923 442.13C582.13 441.688 581.725 438.903 584.545 438.171C585.642 438.887 585.804 439.425 586.429 440.573L586.655 440.996C587.907 441.527 587.278 441.471 588.589 440.981C589.448 439.839 589.563 439.502 590.794 438.766C596.538 441.845 596.885 437.35 600.985 437.303C609.778 437.202 618.695 435.209 627.5 435.797C629.599 435.938 632.764 433.752 635.203 434.045L634.897 435.048L635.246 435.689C643.312 435.535 647.066 435.454 654.334 436.66C659.496 437.516 675.857 436.427 679.999 434.678C681.6 435.115 695.063 436.098 696.292 435.701C702.774 433.604 714.654 432.264 720.78 430.239C741.611 423.357 759.777 404.683 770.529 386.025C773.628 380.646 775.3 361.376 774.669 354.713C774.124 348.769 771.904 341.202 772.985 336.292Z" />
<path fill="#C2C1C2" d="M482.721 598.608L483.523 599.461C485.18 598.617 495.212 581.766 499 579.666C499.724 579.265 504.209 572.628 505.764 571.301C510.612 567.163 515.148 562.769 519.638 558.26C523.959 559.151 526.119 555.647 527.687 555.338C532.03 554.481 542.563 541.117 544.837 541.113C544.897 542.36 544.747 541.925 545.288 542.997C547.619 542.108 547.377 538.722 550.252 537.679C553.474 540.347 555.476 537.237 559.185 536.666C559.739 536.581 559.295 535.639 560.755 535.197C561.266 535.945 561.356 536.057 561.922 536.72C566.254 536.785 568.274 534.502 573.67 534.772L574.185 534.803L577.586 531.583C581.126 531.529 581.988 531.33 585.189 530.082L585.887 529.804L586.656 530.907C588.557 531.91 589.49 530.53 591.717 531.21L591.547 531.793L589.418 531.946C590.057 532.647 593.678 532.437 595.039 533.11C597.465 534.307 602.619 534.053 604.897 532.512C605.948 531.8 605.451 531.846 606.698 531.622L606.3 533.002L606.745 533.575L608.723 533.08L608.698 534.71L609.449 535.281L610.306 535.03C610.587 533.805 610.52 534.035 611.01 532.911L611.893 532.773C612.75 533.76 613.421 534.843 614.147 535.931C612.844 534.831 612.629 534.682 611.15 533.83L610.367 534.618C610.407 535.443 610.593 535.748 610.854 536.561C614.083 538.686 619.793 541.137 623.451 542.839C626.571 542.652 625.501 539.971 627.977 537.223L628.692 537.466C629.647 539.279 629.925 539.379 631.753 540.321C629.835 542.565 629.17 542.235 627.492 543.953C627.496 545.606 627.676 546.252 628.004 547.835C585.473 519.262 539.353 543.414 507.324 575.382C498.468 584.221 491.182 592.048 484.19 602.536L481.746 606.232C481.999 603.753 482.189 601.019 482.721 598.608Z" />
<path fill="#C2C1C2" d="M553.668 704.756C546.012 703.188 515.747 690.454 513.937 682.996C515.909 682.152 523.71 685.872 526.417 686.876C524.753 686.932 523.221 686.784 521.805 687.56L521.818 688.217C528.796 694.188 549.513 700.193 553.668 704.756Z" />
<path fill="#C2C1C2" d="M686.068 532.669C691.579 533.496 693.024 536.51 698.093 538.462C699.725 539.09 701.517 537.924 702.783 539.06C702.186 540.327 701.883 540.706 702.786 542.474C706.795 550.325 712.041 553.8 714.235 562.989C712.191 560.381 709.676 556.102 707.292 553.02C700.479 544.212 694.748 539.161 686.068 532.669Z" />
<path fill="#D6D5D6" d="M516.755 274.634C531.312 272.988 542.249 281.185 554.313 287.896C562.736 292.582 571.373 297.098 579.624 302.065C568.623 305.127 558.775 310.211 548.723 315.549C545.217 317.392 533.603 322.612 530.051 323.394C521.983 325.255 513.506 323.791 506.53 319.331C486.494 306.352 492.157 278.732 516.755 274.634Z" />
<path fill="#C2C1C2" d="M623.318 513.017L623.709 513.976C622.429 515.522 622.104 516.136 622.671 517.917L622.062 518.479L621.29 518.471C620.246 517.323 620.529 517.974 620.36 516.476C621.191 514.337 621.313 514.312 623.318 513.017Z" />
<path fill="#C2C1C2" d="M654.176 557.058L654.628 557.021L655.185 557.497C654.704 558.752 653.324 559.606 652.214 560.503C651.054 560 651.461 560.411 650.955 559.31C652.184 558.221 652.802 557.888 654.176 557.058Z" />
<path fill="#C2C1C2" d="M750.104 386.66C751.096 387.257 750.766 386.963 751.386 387.981C751.58 389.704 751.389 389.806 750.729 391.383L749.382 390.63C748.96 388.615 749.241 388.961 750.104 386.66Z" />
<path fill="#C2C1C2" d="M637.748 541.33L638.217 541.107L638.428 541.939C637.577 543.441 636.838 543.572 635.255 544.294L634.547 544.199L634.478 543.485C635.547 542.176 636.22 542.022 637.748 541.33Z" />
<path fill="#C2C1C2" d="M745.622 404.789C747.154 405.782 746.718 405.128 747.254 406.592L746.244 408.536L745.017 408.193C744.429 406.78 744.872 406.74 745.622 404.789Z" />
<path fill="#C2C1C2" d="M602.029 501.718C603.661 502.599 603.387 502.026 603.775 503.231L602.63 504.693L600.951 504.575L600.636 503.887L602.029 501.718Z" />
<path fill="#C2C1C2" d="M627.357 508.965L627.662 509.443C627.354 511.054 627.12 510.715 625.276 512.031L624.734 510.718C625.43 509.273 625.289 509.722 627.357 508.965Z" />
<path fill="#C2C1C2" d="M590.683 505.188L591.59 505.704C591.849 507.183 591.501 507.041 590.435 508.738L589.602 508.552C589.493 506.902 589.827 506.929 590.683 505.188Z" />
<path fill="#C2C1C2" d="M613.52 512.69C614.714 513.231 614.273 512.804 614.855 513.961L614.037 515.681L613.309 515.678C612.701 514.304 612.981 514.543 613.52 512.69Z" />
<path fill="#C2C1C2" d="M600.212 518.733C601.588 518.986 601.74 518.859 602.744 519.76L601.928 520.606L600.171 520.849L599.626 520.346L600.212 518.733Z" />
<path fill="#C2C1C2" d="M625.487 518.802L626.613 518.255L627.001 518.628L625.91 520.379C624.705 519.914 625.137 520.302 624.533 519.313L625.487 518.802Z" />
</svg>